<svg width="156" height="40" fill="none" xmlns="http://www.w3.org/2000/svg"><path d="M7.34 9.2c-.026.419-.08.717-.08 1.016 0 2.24-.027 4.48 0 6.721 0 .627-.16.836-.723.836-1.769 0-1.769 0-1.769-1.971V9.23c0-1.374.777-2.15 1.983-2.24 1.34-.12 2.358.239 3.322 1.404 1.929 2.3 4.018 4.42 6.028 6.601.107.12.214.21.455.419.027-.389.08-.657.08-.896V8.931c0-1.255.536-1.882 1.688-1.912.51-.03 1.018.03 1.527-.03.59-.06 1.018.209 1.42.657 2.197 2.42 4.42 4.81 6.644 7.229.134.15.295.299.563.568.027-.449.054-.688.054-.927V8.873c0-1.195.509-1.792 1.607-1.852.455-.03.884 0 1.232 0-.107.747-.294 1.463-.294 2.21-.054 2.21 0 4.421-.027 6.632 0 .388-.054.806-.16 1.195-.162.478-.483.776-.965.746-.483-.03-.992-.06-1.474 0-.991.15-1.688-.328-2.357-1.105-2.063-2.33-4.18-4.63-6.296-6.93a8.327 8.327 0 0 0-.616-.597c-.027.448-.054.687-.054.926V16.1c0 1.254-.375 1.702-1.473 1.672-3-.06-2.036.448-4.206-1.911a383.522 383.522 0 0 0-5.573-6.154c-.134-.15-.295-.269-.536-.508zM48.09 17.863v-7.14c0-2.33 1.285-3.763 3.375-3.763h6.162c1.982 0 3.295 1.463 3.295 3.644v3.704c0 1.882-1.26 3.375-2.974 3.405-2.116.03-4.233 0-6.349.03-.938 0-.938 0-.938 1.016v4.72c0 1.344-.616 2.24-1.795 2.598-.696.21-.803.12-.803-.657.026-2.539.026-5.048.026-7.557zm6.402-2.33h2.492c.938 0 1.34-.448 1.34-1.464v-3.435c0-.896-.376-1.434-1.18-1.464a78.523 78.523 0 0 0-5.304 0c-.804.03-1.179.538-1.179 1.434v3.495c0 .926.429 1.404 1.26 1.404.884.03 1.74.03 2.571.03zM121.253 31.126c-1.446 0-2.893-.03-4.366 0-.456 0-.643-.15-.643-.687.053-1.942-.241-1.613 1.446-1.613 2.385-.03 4.796 0 7.18 0h.509c.563-.03.991-.478.965-1.016 0-.508-.456-.956-1.018-.956-1.876 0-3.751.03-5.626-.03a4.04 4.04 0 0 1-1.554-.328c-1.34-.568-1.983-1.762-1.902-3.286.08-1.255 1.071-2.48 2.33-2.808.322-.09.67-.15 1.018-.15 2.787 0 5.546 0 8.332-.03.536 0 .697.18.697.778-.054 1.822.214 1.523-1.393 1.523-2.304.03-4.608 0-6.912 0h-.456c-.562.03-.991.448-.964.986 0 .537.429.985.991.985 1.875 0 3.751 0 5.626.03.429 0 .857.06 1.259.21a3.223 3.223 0 0 1 2.224 3.106c-.027 1.494-1.045 2.778-2.492 3.107-.401.09-.803.12-1.205.15-1.367.029-2.706.029-4.046.029zM72.682 20.253c-.134.627-.322 1.224-.348 1.822-.027 2.39-.027 4.75-.027 7.14 0 1.403-.456 1.791-1.661 1.94-1.608.18-2.786-.447-3.858-1.762-1.822-2.21-3.804-4.241-5.733-6.332-.134-.15-.322-.3-.59-.568-.026.448-.053.717-.053.986 0 2.3-.027 4.63 0 6.93 0 .568-.134.777-.643.747-.455-.03-.938-.03-1.42 0-.375.03-.536-.12-.536-.568 0-2.629-.027-5.227.027-7.856.027-1.673.83-2.45 2.33-2.45.296 0 .59.03.885 0 .59-.06 1.018.18 1.42.628 2.116 2.33 4.26 4.66 6.403 6.99.214.239.455.448.83.806.027-.418.027-.687.027-.926v-5.347c0-1.433.563-2.09 1.875-2.15.402-.06.804-.03 1.072-.03zM153.455 31.126h-6.751c-.858 0-1.634-.24-2.331-.837-.697-.597-1.098-1.344-1.072-2.39.027-1.553 0-3.106.027-4.63.027-1.373 1.072-2.628 2.438-2.807 0 .268.027.508.027.747v6.063c0 1.106.402 1.524 1.393 1.554h5.01c.911 0 1.259-.419 1.259-1.434.027-1.494-.027-2.987.107-4.48.107-1.285 1.125-2.241 2.411-2.45.027.268.027.508.027.747v17.444c0 .837-.107.926-.804.717-1.098-.328-1.768-1.284-1.768-2.569 0-1.882.027-3.734.027-5.675zM98.16 17.714c-1.528 0-3.028-.03-4.555 0-.482 0-.67-.15-.67-.747.054-1.733-.188-1.464 1.34-1.464 2.438-.03 4.875 0 7.313 0 .215 0 .429.03.643-.03.456-.09.858-.448.804-.956-.054-.358-.375-.746-.67-.985-.187-.15-.536-.12-.803-.12h-5.573c-1.286-.03-2.518-.986-2.866-2.21-.617-2.061.83-4.242 2.893-4.242 2.92-.03 5.84 0 8.787-.03.375 0 .536.12.536.568-.027 1.941.188 1.613-1.393 1.613-2.277.03-4.528 0-6.805 0-.241 0-.509.03-.75.09-.509.119-.83.477-.777 1.045.027.597.402.926.938.956.83.03 1.66 0 2.491 0 1.152 0 2.304-.09 3.456.03.724.09 1.5.418 2.117.866.964.717 1.259 2.15.911 3.405-.322 1.075-1.554 2.121-2.653 2.15-1.607.09-3.161.06-4.715.06zM39.65 17.713c-1.099 0-2.17.03-3.269 0-1.875-.03-3.054-1.374-3.054-3.465v-3.943c0-1.882 1.26-3.345 2.947-3.375 2.25-.03 4.474-.03 6.724 0 1.367.03 3.162 1.314 3.055 3.465-.054 1.314 0 2.629 0 3.943 0 1.822-1.233 3.286-2.894 3.345-1.152.06-2.33.03-3.51.03zm0-2.18h2.571c.858 0 1.26-.448 1.26-1.404v-3.495c0-.926-.349-1.434-1.152-1.464a78.523 78.523 0 0 0-5.305 0c-.804.03-1.179.538-1.206 1.434v3.495c0 .926.456 1.404 1.287 1.404.83.03 1.687.03 2.545.03zM69.414 17.713h-3.269c-1.902-.03-3.08-1.404-3.08-3.495v-3.913c0-1.822 1.259-3.315 2.92-3.345 2.277-.03 4.554-.03 6.858 0 1.34.03 3.08 1.344 2.947 3.405-.08 1.344-.027 2.718-.027 4.063 0 1.732-1.206 3.196-2.786 3.256-1.179.06-2.358.03-3.563.03zm.027-2.18h2.491c.884 0 1.34-.448 1.366-1.404.027-1.195.027-2.39 0-3.555-.026-.836-.455-1.374-1.205-1.374-1.795-.03-3.59-.03-5.385 0-.75.03-1.152.568-1.179 1.404a78.588 78.588 0 0 0 0 3.555c.027.866.482 1.374 1.26 1.374h2.652z" fill="#fff"/><path d="M45.544 20.402V27.392c0 .986.401 1.434 1.285 1.434h5.117c.858 0 1.26-.418 1.26-1.374v-3.913c.026-1.554 1.071-2.838 2.545-3.077.026.269.026.508.026.747 0 2.06-.08 4.092.027 6.153.107 2.45-1.554 3.734-3.268 3.794-2.09.06-4.18.03-6.27 0-.91 0-1.714-.359-2.383-1.046-.536-.537-.831-1.165-.831-2.001.027-1.523 0-3.047 0-4.57 0-1.643.91-2.778 2.492-3.137zM138.346 20.253c.937 0 1.768.03 2.625 0 .429-.03.616.149.59.657-.054 2.031.241 1.613-1.474 1.672h-1.714c0 1.673-.054 3.286.026 4.9.027.746.804 1.344 1.527 1.373.643.03 1.286.03 1.929 0 .349 0 .483.15.509.538.081 1.763.108 1.793-1.5 1.763-.857 0-1.714 0-2.545-.15-1.607-.299-2.518-1.553-2.518-3.375V16.28c0-1.255.937-2.39 1.982-2.48.456-.03.616.12.616.628-.026 1.672 0 3.345 0 4.988-.053.269-.053.508-.053.837zM77.664 20.163c.83.12 1.5.06 2.063.299.536.239 1.099.657 1.447 1.195 1.205 1.911 2.33 3.913 3.51 5.884.16.24.321.508.535.866.188-.268.322-.477.456-.657 1.098-1.852 2.25-3.644 3.268-5.556.884-1.703 2.197-2.001 3.831-1.912-.16.3-.294.568-.455.807-1.58 2.718-3.162 5.437-4.742 8.125a5.586 5.586 0 0 1-.991 1.284c-.938.867-2.01.807-2.867-.179-.348-.418-.643-.896-.938-1.344-1.527-2.569-3.027-5.168-4.554-7.767-.16-.268-.295-.567-.563-1.045zM80.398.478V13.204c0 1.582.67 2.329 2.063 2.329.857 0 1.715.03 2.572 0 .455-.03.643.12.643.687-.054 1.763.214 1.494-1.34 1.524h-3.322c-1.928-.03-3.16-1.434-3.16-3.555 0-3.615.026-7.229 0-10.873C77.798 1.583 78.95.329 80.397.478zM107.805 26.615v-3.644c0-1.613.857-2.659 2.33-2.689 1.527-.06 3.081 0 4.608-.03.375 0 .536.15.536.568-.027 2.121.241 1.673-1.473 1.733h-1.527c-1.179 0-1.849.746-1.849 2.09 0 1.912-.027 3.824 0 5.706 0 .568-.107.836-.67.777-.455-.06-.911-.03-1.339 0-.456.03-.59-.18-.59-.687 0-1.255 0-2.54-.026-3.824zM133.604 25.72c0 1.582-.027 3.136 0 4.719 0 .508-.107.747-.616.717-.509-.03-1.018.03-1.527-.03-.161-.03-.429-.329-.429-.478-.027-2.718-.053-5.437 0-8.125.027-1.165 1.099-2.18 2.17-2.24.429-.03.402.298.402.627v4.81zM2.599 12.337c0 1.583-.027 3.136 0 4.72 0 .537-.161.687-.643.687C0 17.774 0 17.804 0 15.623V9.499C0 8.185.857 7.14 2.036 6.99c.429-.06.563.12.563.597v4.75zM76.969 25.69c0 1.582-.027 3.136 0 4.719 0 .538-.107.806-.643.747-.455-.06-.938.03-1.393-.03-.16-.03-.456-.299-.456-.478a431.958 431.958 0 0 1 0-8.334c.027-1.016 1.286-2.18 2.144-2.002.134.03.294.419.321.628.054 1.553.027 3.136.027 4.75zM90.552 12.367c0 1.493-.027 2.987 0 4.51 0 .628-.135.896-.75.866-1.769-.03-1.769 0-1.769-2 0-2.152.027-4.273 0-6.423-.027-1.434 1.072-2.18 1.983-2.36.455-.09.535.209.535.627v4.78zM104.804 28.796c-2.706.03-5.412.03-8.145 0-.723 0-1.151-.389-1.125-1.016.027-.627.402-.956 1.125-.956 1.85 0 3.671.03 5.519-.03.563-.03 1.152-.15 1.661-.418.884-.418 1.581-1.135 1.688-2.24.241-2.151-1.098-3.854-3.054-3.913-2.143-.03-4.26-.03-6.403 0-1.875.03-3.107 1.523-3.107 3.614 0 1.344.026 2.718 0 4.063 0 .806.24 1.433.723 1.971.723.807 1.607 1.195 2.598 1.195 1.42.03 2.867 0 4.287 0h3.643c1.554-.03 1.286.269 1.34-1.523.027-.598-.188-.747-.75-.747zm-9.377-4.87c.027-.866.456-1.373 1.232-1.373h5.198c.723 0 1.071.328 1.071.985s-.375.986-1.071.986h-2.894c-.99 0-2.009-.03-3 0-.429.03-.536-.18-.536-.597z" fill="#fff"/><path d="M98.99 24.525c-.99 0-2.009-.03-3 0h5.894c-.991.03-1.929 0-2.893 0z" fill="#fff"/></svg>